<svg xmlns="http://www.w3.org/2000/svg" viewBox="0 0 980 300" role="img" aria-label="Acuitas logo: Acuity you can act on"><defs><linearGradient id="curve" x1="40" y1="205" x2="260" y2="82" gradientUnits="userSpaceOnUse"><stop offset="0" stop-color="#1295a3"/><stop offset=".55" stop-color="#1aa7a6"/><stop offset="1" stop-color="#67cfae"/></linearGradient></defs><g transform="translate(24 18) scale(.86)"><path d="M50 250 138 45 226 250" fill="none" stroke="#071e4d" stroke-width="40" stroke-linejoin="miter" stroke-linecap="butt"/><path d="M45 217 C94 207 142 188 183 157 C216 132 239 103 260 74" fill="none" stroke="url(#curve)" stroke-width="20" stroke-linecap="round"/><g stroke="#fff" stroke-width="7"><circle cx="62" cy="214" r="16" fill="#1295a3"/><circle cx="124" cy="194" r="16" fill="#17a5a9"/><circle cx="185" cy="157" r="16" fill="#41b9a9"/><circle cx="248" cy="91" r="17" fill="#67cfae"/></g></g><g transform="translate(325 60) scale(.86)"><path d="M82.52 109.46L32.63 109.46L15.49 152.81L6 152.81L55.4 29.5L60.85 29.5L109.23 152.81L99.56 152.81L82.52 109.46ZM35.72 101.74L79.67 101.74L62.95 57.48Q60.85 52.26 57.9 43.05Q55.64 51.11 52.95 57.64L35.72 101.74ZM160.96 154.5Q141.39 154.5 130.29 142.16Q119.22 129.8 119.22 107.71Q119.22 85.03 130.72 72.39Q142.22 59.74 162.22 59.74Q174.07 59.74 184.9 63.87L182.62 71.27Q170.79 67.31 162.06 67.31Q145.26 67.31 136.61 77.69Q127.95 88.06 127.95 107.55Q127.95 126.01 136.61 136.47Q145.26 146.92 160.8 146.92Q173.21 146.92 183.88 142.49L183.88 150.2Q175.15 154.5 160.96 154.5ZM213.46 61.51L213.46 120.64Q213.46 134.42 219.24 140.69Q225.05 146.92 237.22 146.92Q253.51 146.92 261.19 138.7Q268.88 130.47 268.88 111.9L268.88 61.51L277.1 61.51L277.1 152.81L270.06 152.81L268.56 140.2L268.05 140.2Q259.15 154.5 236.39 154.5Q205.21 154.5 205.21 121.15L205.21 61.51L213.46 61.51ZM315.99 152.81L307.69 152.81L307.69 61.51L315.99 61.51L315.99 152.81ZM370.68 147.08Q378.56 147.08 384.44 145.74L384.44 152.46Q378.4 154.5 370.49 154.5Q358.4 154.5 352.65 148.02Q346.9 141.55 346.9 127.7L346.9 68.74L333.38 68.74L333.38 63.87L346.9 60.08L351.12 39.42L355.39 39.42L355.39 61.51L382.19 61.51L382.19 68.74L355.39 68.74L355.39 126.52Q355.39 137 359.07 142.06Q362.78 147.08 370.68 147.08ZM459.61 152.81L457.51 138.35L456.84 138.35Q449.96 147.19 442.68 150.84Q435.42 154.5 425.53 154.5Q412.09 154.5 404.59 147.62Q397.12 140.71 397.12 128.54Q397.12 115.18 408.25 107.79Q419.38 100.4 440.47 99.97L457.86 99.48L457.86 93.44Q457.86 80.4 452.57 73.76Q447.27 67.13 435.5 67.13Q422.84 67.13 409.22 74.19L406.13 66.97Q421.15 59.92 435.85 59.92Q450.87 59.92 458.29 67.74Q465.74 75.54 465.74 92.09L465.74 152.81L459.61 152.81ZM426.01 146.92Q440.63 146.92 449.07 138.56Q457.51 130.2 457.51 115.34L457.51 106.37L441.55 107.04Q422.33 107.95 414.13 113.03Q405.94 118.11 405.94 128.86Q405.94 137.43 411.18 142.19Q416.45 146.92 426.01 146.92ZM551.92 129.05Q551.92 141.3 542.59 147.92Q533.27 154.5 516.15 154.5Q497.84 154.5 487.09 148.86L487.09 139.88Q500.85 146.76 516.15 146.76Q529.66 146.76 536.68 142.27Q543.69 137.78 543.69 130.28Q543.69 123.4 538.1 118.7Q532.51 114 519.75 109.46Q506.07 104.51 500.5 100.94Q494.97 97.36 492.15 92.87Q489.35 88.39 489.35 81.91Q489.35 71.67 497.95 65.7Q506.58 59.74 522.03 59.74Q536.81 59.74 550.06 65.3L546.97 72.85Q533.53 67.31 522.03 67.31Q510.85 67.31 504.29 71.02Q497.74 74.71 497.74 81.24Q497.74 88.39 502.82 92.69Q507.92 96.96 522.7 102.25Q535.04 106.69 540.66 110.26Q546.3 113.84 549.1 118.38Q551.92 122.89 551.92 129.05Z" fill="#071e4d" fill-rule="nonzero"/><circle cx="314.95" cy="33" r="9.5" fill="#1295a3"/></g><text x="328" y="225" font-family="Avenir Next,Montserrat,Segoe UI,Arial,sans-serif" font-size="24" font-weight="700" letter-spacing="7" fill="#167f87">ACUITY YOU CAN ACT ON.</text></svg>